<svg xmlns="http://www.w3.org/2000/svg" width="1050" height="866" viewBox="0 0 1050 866" font-family="Segoe UI, Helvetica, Arial, sans-serif">
<rect x="0" y="0" width="1050" height="866" fill="white"/>
<text x="525.0" y="30" text-anchor="middle" font-size="18" font-weight="bold" fill="#2c3e50">Atualizar Prontuário (Médico) — fluxo que não estava documentado</text>
<line x1="110" y1="112" x2="110" y2="846" stroke="#34495e" stroke-width="1.5" stroke-dasharray="5,4"/>
<circle cx="110" cy="60" r="9" fill="none" stroke="#2c3e50" stroke-width="2"/>
<line x1="110" y1="69" x2="110" y2="92" stroke="#2c3e50" stroke-width="2"/>
<line x1="97" y1="77" x2="123" y2="77" stroke="#2c3e50" stroke-width="2"/>
<line x1="110" y1="92" x2="99" y2="108" stroke="#2c3e50" stroke-width="2"/>
<line x1="110" y1="92" x2="121" y2="108" stroke="#2c3e50" stroke-width="2"/>
<text x="110" y="104" text-anchor="middle" font-size="12.5" font-weight="600" fill="#2c3e50">Médico</text>
<line x1="300" y1="112" x2="300" y2="846" stroke="#34495e" stroke-width="1.5" stroke-dasharray="5,4"/>
<rect x="217.8" y="36" width="164.4" height="56" rx="5" fill="#eaf1f8" stroke="#2c3e50" stroke-width="1.3"/>
<text x="300" y="54" text-anchor="middle" font-size="12" font-weight="600" fill="#2c3e50">AtualizarProntuario</text>
<text x="300" y="69" text-anchor="middle" font-size="12" font-weight="600" fill="#2c3e50">Controller</text>
<line x1="490" y1="112" x2="490" y2="846" stroke="#34495e" stroke-width="1.5" stroke-dasharray="5,4"/>
<rect x="415.4" y="51" width="149.2" height="41" rx="5" fill="#eaf1f8" stroke="#2c3e50" stroke-width="1.3"/>
<text x="490" y="69" text-anchor="middle" font-size="12" font-weight="600" fill="#2c3e50">ClienteRepository</text>
<line x1="680" y1="112" x2="680" y2="846" stroke="#34495e" stroke-width="1.5" stroke-dasharray="5,4"/>
<rect x="622.5" y="36" width="115" height="56" rx="5" fill="#eaf1f8" stroke="#2c3e50" stroke-width="1.3"/>
<text x="680" y="54" text-anchor="middle" font-size="12" font-weight="600" fill="#2c3e50">Prontuario</text>
<text x="680" y="69" text-anchor="middle" font-size="12" font-weight="600" fill="#2c3e50">Repository</text>
<line x1="110" y1="154" x2="300" y2="154" stroke="#1b1b1b" stroke-width="1.4"/>
<polygon points="291,150 291,158 300,154" fill="#1b1b1b"/>
<text x="205.0" y="146" text-anchor="middle" font-size="11.5" fill="#1b1b1b">busca paciente por CPF</text>
<line x1="300" y1="196" x2="490" y2="196" stroke="#1b1b1b" stroke-width="1.4"/>
<polygon points="481,192 481,200 490,196" fill="#1b1b1b"/>
<text x="395.0" y="188" text-anchor="middle" font-size="11.5" fill="#1b1b1b">loadAll()</text>
<line x1="490" y1="238" x2="300" y2="238" stroke="#1b1b1b" stroke-width="1.4" stroke-dasharray="6,4"/>
<polygon points="309,234 309,242 300,238" fill="#1b1b1b"/>
<text x="395.0" y="230" text-anchor="middle" font-size="11.5" fill="#1b1b1b">List&lt;Cliente&gt;</text>
<path d="M 304 266 H 370 V 280 H 304" fill="none" stroke="#1b1b1b" stroke-width="1.4"/>
<polygon points="313,276 313,284 304,280" fill="#1b1b1b"/>
<text x="312" y="262" font-size="11.5" fill="#1b1b1b">filtra pelo CPF informado</text>
<line x1="110" y1="364" x2="300" y2="364" stroke="#1b1b1b" stroke-width="1.4"/>
<polygon points="291,360 291,368 300,364" fill="#1b1b1b"/>
<text x="205.0" y="356" text-anchor="middle" font-size="11.5" fill="#1b1b1b">informa a doença</text>
<line x1="300" y1="406" x2="680" y2="406" stroke="#1b1b1b" stroke-width="1.4"/>
<polygon points="671,402 671,410 680,406" fill="#1b1b1b"/>
<text x="490.0" y="398" text-anchor="middle" font-size="11.5" fill="#1b1b1b">create(new Prontuario(doenca))</text>
<line x1="300" y1="448" x2="490" y2="448" stroke="#1b1b1b" stroke-width="1.4"/>
<polygon points="481,444 481,452 490,448" fill="#1b1b1b"/>
<text x="395.0" y="440" text-anchor="middle" font-size="11.5" fill="#1b1b1b">update(clienteComProntuario)</text>
<line x1="110" y1="532" x2="300" y2="532" stroke="#1b1b1b" stroke-width="1.4"/>
<polygon points="291,528 291,536 300,532" fill="#1b1b1b"/>
<text x="205.0" y="524" text-anchor="middle" font-size="11.5" fill="#1b1b1b">edita a doença</text>
<line x1="300" y1="574" x2="680" y2="574" stroke="#1b1b1b" stroke-width="1.4"/>
<polygon points="671,570 671,578 680,574" fill="#1b1b1b"/>
<text x="490.0" y="566" text-anchor="middle" font-size="11.5" fill="#1b1b1b">update(prontuario)</text>
<rect x="24.5" y="300" width="779.0" height="328" fill="none" stroke="#8e8e8e" stroke-width="1.2" stroke-dasharray="4,3"/>
<path d="M 24.5 300 h 175 v 14 l -8,8 h -167 z" fill="#e8e8e8" stroke="#8e8e8e" stroke-width="1"/>
<text x="30.5" y="313" font-size="11" font-weight="bold" fill="#333">alt [sem prontuário ainda]</text>
<line x1="24.5" y1="470" x2="803.5" y2="470" stroke="#8e8e8e" stroke-width="1" stroke-dasharray="4,3"/>
<text x="30.5" y="482" font-size="10.5" font-style="italic" fill="#555">[já tem prontuário]</text>
<line x1="300" y1="658" x2="680" y2="658" stroke="#1b1b1b" stroke-width="1.4"/>
<polygon points="671,654 671,662 680,658" fill="#1b1b1b"/>
<text x="490.0" y="637" text-anchor="middle" font-size="11.5" fill="#1b1b1b">adicionarMedicoAoHistorico(prontuario,</text>
<text x="490.0" y="650" text-anchor="middle" font-size="11.5" fill="#1b1b1b">medico)</text>
<line x1="680" y1="742" x2="300" y2="742" stroke="#1b1b1b" stroke-width="1.4" stroke-dasharray="6,4"/>
<polygon points="309,738 309,746 300,742" fill="#1b1b1b"/>
<text x="490.0" y="734" text-anchor="middle" font-size="11.5" fill="#1b1b1b">OK</text>
<line x1="300" y1="784" x2="110" y2="784" stroke="#1b1b1b" stroke-width="1.4" stroke-dasharray="6,4"/>
<polygon points="119,780 119,788 110,784" fill="#1b1b1b"/>
<text x="205.0" y="776" text-anchor="middle" font-size="11.5" fill="#1b1b1b">confirma atualização</text>
</svg>